<svg xmlns="http://www.w3.org/2000/svg" viewBox="0 0 94.38 31.85">
    <path style="stroke:#f6f6f6;stroke-miterlimit:10;stroke-width:.25px;fill:#293929" d="m.34 23.89 14.16 7.75V13.31L.3 6.7l.04 17.19z"/>
    <path style="fill:#516d58;stroke:#f6f6f6;stroke-miterlimit:10;stroke-width:.25px" d="m28.71 24.15-14.19 7.49-.02-18.33L28.71 6.7v17.45z"/>
    <path style="fill:#41584b;stroke:#f6f6f6;stroke-miterlimit:10;stroke-width:.25px" d="M14.5.14 28.71 6.7 14.5 13.31.3 6.7 14.5.14z"/>
    <path style="fill:#f6f6f6" d="M14.54 11.59 4 6.67l10.38-4.81 10.53 4.91-3.21 1.5-7.43-3.45-3.6 1.67 7.42 3.43-3.55 1.67zM16.43 28.68V14.27l3.52-1.71v5.14l3.67-1.88v-4.93l3.18-1.51-.02 13.93-3.2 1.64.02-4.71-3.65 1.87.02 4.68-3.54 1.89zM5.29 25.09v-4.85l-3.12-1.65v-4.14l3.12 1.49v-5.07l3.7 1.72v5.08l3.7 1.95v4.52l-3.7-1.95v4.85l-3.7-1.95z"/>
    <path style="fill:#43584b" d="M44.35 4.67v14.12h-4.54V6.08h-2.72v12.71h-4.54V4.67ZM59.12 4.67v14.12h-4.53V6.08h-2.73v10.74a1.75 1.75 0 0 1-1.42 1.69 15.81 15.81 0 0 1-4.6.48h-.26v-1.41H46a2.35 2.35 0 0 0 1.16-.16.8.8 0 0 0 .2-.63V4.67ZM68.2 10.12V6.3c0-.51.58-.94 1.75-1.3a14.73 14.73 0 0 1 4.21-.53 14.15 14.15 0 0 1 4.15.53c1.12.36 1.68.79 1.68 1.3v10.86c0 .51-.56.94-1.68 1.3a13.82 13.82 0 0 1-4.15.53 14.38 14.38 0 0 1-4.16-.53c-1.17-.36-1.75-.79-1.75-1.3v-5.63h-2v7.26h-4.54V4.67h4.54v5.45Zm7.25-3.82c0-.12-.12-.22-.35-.31a2.73 2.73 0 0 0-.94-.13 3.35 3.35 0 0 0-1 .13c-.28.09-.42.19-.42.31v10.86c0 .12.14.22.42.31a3.35 3.35 0 0 0 1 .13 2.73 2.73 0 0 0 .94-.13c.23-.09.35-.19.35-.31ZM87.12 16.79a.8.8 0 0 0 .19.63 4.36 4.36 0 0 0 2.34 0 .8.8 0 0 0 .19-.63v-2.23h4.54v2.23A1.78 1.78 0 0 1 93 18.5a14.79 14.79 0 0 1-4.51.49 14.34 14.34 0 0 1-4.5-.5 1.79 1.79 0 0 1-1.4-1.72V6.67A1.78 1.78 0 0 1 84 5a14.72 14.72 0 0 1 4.5-.49A14.79 14.79 0 0 1 93 5a1.78 1.78 0 0 1 1.39 1.71v2.2h-4.55V6.67a.8.8 0 0 0-.19-.67 4.36 4.36 0 0 0-2.34 0 .8.8 0 0 0-.19.63ZM36.29 20.19v5.54h-1.42v-5H34v5h-1.4v-5.54ZM38.8 20.19a4.31 4.31 0 0 1 1.48.2.68.68 0 0 1 .5.66v1.68a.68.68 0 0 1-.51.67 4.41 4.41 0 0 1-1.49.2h-.27v2.13h-1.42v-5.54ZM38.51 23h.27a1.18 1.18 0 0 0 .44-.06.25.25 0 0 0 .15-.25v-1.64a.24.24 0 0 0-.14-.24 1.09 1.09 0 0 0-.43-.06h-.29ZM45.28 25a.67.67 0 0 1-.43.67 3.73 3.73 0 0 1-1.41.19 3.5 3.5 0 0 1-1.41-.2.68.68 0 0 1-.44-.67V21a.68.68 0 0 1 .44-.67 5.07 5.07 0 0 1 2.82 0 .67.67 0 0 1 .43.67Zm-1.42-4a.36.36 0 0 0-.06-.25.62.62 0 0 0-.36-.06.67.67 0 0 0-.37.06.36.36 0 0 0-.07.25v4a.35.35 0 0 0 .06.24s.17.07.37.07.32 0 .36-.07a.35.35 0 0 0 .06-.24ZM47.51 25a.35.35 0 0 0 .06.24s.16.07.37.07.32 0 .36-.07a.35.35 0 0 0 .06-.24v-.88h1.42V25a.67.67 0 0 1-.43.67 3.73 3.73 0 0 1-1.41.19 3.5 3.5 0 0 1-1.41-.2.68.68 0 0 1-.44-.67V21a.68.68 0 0 1 .44-.67 5.07 5.07 0 0 1 2.82 0 .67.67 0 0 1 .43.67v.87h-1.42V21a.36.36 0 0 0-.06-.25.62.62 0 0 0-.36-.06c-.21 0-.33 0-.37.06a.36.36 0 0 0-.06.25ZM54.08 20.19v.56h-1.14v5h-1.42v-5h-1.13v-.56ZM58.17 25a.67.67 0 0 1-.43.67 3.73 3.73 0 0 1-1.41.19 3.5 3.5 0 0 1-1.41-.2.68.68 0 0 1-.44-.67V21a.68.68 0 0 1 .44-.67 5.07 5.07 0 0 1 2.82 0 .67.67 0 0 1 .43.67Zm-1.42-4a.36.36 0 0 0-.06-.25.62.62 0 0 0-.36-.06.67.67 0 0 0-.37.06.36.36 0 0 0-.06.25v4a.35.35 0 0 0 .06.24s.17.07.37.07.32 0 .36-.07a.35.35 0 0 0 .06-.24ZM63.44 25.73H62v-5.54h1.42v2.14h.85v-2.14h1.42v5.54h-1.4v-2.85h-.85ZM66.32 25.73l.73-5.54h2.21l.74 5.54h-1.4l-.1-1.18h-.69l-.1 1.18Zm1.54-1.66h.61l-.29-3.32ZM74.49 20.19v5h.59v1.27h-1.42v-.72h-2.23v.72H70v-1.28h.45a.74.74 0 0 0 .24 0 .13.13 0 0 0 .09-.09.87.87 0 0 0 0-.18v-4.72Zm-2.27 4.75a.5.5 0 0 1-.06.24h.91v-4.43h-.85ZM78.42 20.19v.56H76.6v1.58h1.62v.55H76.6v2.3h1.82v.55h-3.24v-5.54ZM82.86 20.19v2.14h.28a1.5 1.5 0 0 0 .42 0 .19.19 0 0 0 .15-.2V21a.68.68 0 0 1 .45-.67 3.84 3.84 0 0 1 1.44-.19h.08v.55h-.13a.62.62 0 0 0-.36.06.4.4 0 0 0-.06.25v1.12c0 .25-.18.41-.55.48a.75.75 0 0 1 .42.2.55.55 0 0 1 .13.34v2.58h-1.42v-2.67a.17.17 0 0 0-.08-.12.54.54 0 0 0-.26-.05h-.51v2.85h-1.42v-2.85h-.51a.54.54 0 0 0-.26.05.17.17 0 0 0-.08.12v2.68h-1.42v-2.58a.5.5 0 0 1 .13-.34.75.75 0 0 1 .42-.2c-.37-.07-.55-.23-.55-.48V21a.4.4 0 0 0-.06-.25s-.16-.06-.37-.06h-.12v-.55h.08a3.84 3.84 0 0 1 1.44.19.68.68 0 0 1 .45.67v1.08a.19.19 0 0 0 .15.2 1.5 1.5 0 0 0 .42 0h.28v-2.09ZM87.5 25.73h-1.42v-5.54h1.42v2.14h.85v-2.14h1.42v5.54h-1.42v-2.85h-.85ZM94.27 25a.68.68 0 0 1-.44.67 3.7 3.7 0 0 1-1.4.19 3.5 3.5 0 0 1-1.41-.2.68.68 0 0 1-.44-.67V21a.68.68 0 0 1 .44-.67 5 5 0 0 1 2.81 0 .68.68 0 0 1 .44.67Zm-1.42-4a.36.36 0 0 0-.06-.25.62.62 0 0 0-.36-.06c-.21 0-.33 0-.37.06A.36.36 0 0 0 92 21v4a.35.35 0 0 0 .06.24s.16.07.37.07.32 0 .36-.07a.35.35 0 0 0 .06-.24Z"/>
</svg>
